<mxfile host="app.diagrams.net" modified="2022-08-31T04:19:04.701Z" agent="5.0 (Macintosh; Intel Mac OS X 10_15_7) AppleWebKit/537.36 (KHTML, like Gecko) Chrome/104.0.0.0 Safari/537.36" etag="T5IAAfR9-fSoqtZ6y_lR" version="20.2.7" type="github">
  <diagram id="B30xVyMKRAGLTOZISiQs" name="Page-1">
    <mxGraphModel dx="658" dy="455" grid="1" gridSize="10" guides="1" tooltips="1" connect="1" arrows="1" fold="1" page="1" pageScale="1" pageWidth="827" pageHeight="1169" math="0" shadow="0">
      <root>
        <mxCell id="0" />
        <mxCell id="1" parent="0" />
        <mxCell id="wNhf61Z3boOcq78axERI-3" value="" style="edgeStyle=orthogonalEdgeStyle;rounded=0;orthogonalLoop=1;jettySize=auto;html=1;" edge="1" parent="1" source="wNhf61Z3boOcq78axERI-1" target="wNhf61Z3boOcq78axERI-2">
          <mxGeometry relative="1" as="geometry" />
        </mxCell>
        <mxCell id="wNhf61Z3boOcq78axERI-1" value="Start" style="rounded=1;whiteSpace=wrap;html=1;" vertex="1" parent="1">
          <mxGeometry x="354" y="40" width="120" height="60" as="geometry" />
        </mxCell>
        <mxCell id="wNhf61Z3boOcq78axERI-7" value="" style="edgeStyle=orthogonalEdgeStyle;rounded=0;orthogonalLoop=1;jettySize=auto;html=1;" edge="1" parent="1" source="wNhf61Z3boOcq78axERI-2" target="wNhf61Z3boOcq78axERI-6">
          <mxGeometry relative="1" as="geometry" />
        </mxCell>
        <mxCell id="wNhf61Z3boOcq78axERI-2" value="step1" style="rounded=1;whiteSpace=wrap;html=1;" vertex="1" parent="1">
          <mxGeometry x="354" y="180" width="120" height="60" as="geometry" />
        </mxCell>
        <mxCell id="wNhf61Z3boOcq78axERI-6" value="" style="whiteSpace=wrap;html=1;rounded=1;" vertex="1" parent="1">
          <mxGeometry x="354" y="320" width="120" height="60" as="geometry" />
        </mxCell>
      </root>
    </mxGraphModel>
  </diagram>
</mxfile>
